HIERARCHY
ROOT root
{
	OFFSET	0	13.1	24.9
	CHANNELS 6  Xposition Yposition Zposition Xrotation Yrotation Zrotation
	JOINT spine_1
	{
		OFFSET	0	9.99999	0
		CHANNELS 3  Xrotation Yrotation Zrotation
		JOINT spine_2
		{
			OFFSET	0	112	-10
			CHANNELS 3  Xrotation Yrotation Zrotation
			JOINT spine_3
			{
				OFFSET	0	206.5	19.3
				CHANNELS 3  Xrotation Yrotation Zrotation
				JOINT spine_4
				{
					OFFSET	0	110.4	14.6
					CHANNELS 3  Xrotation Yrotation Zrotation
					JOINT neck_1
					{
						OFFSET	0	71.8	-50.3
						CHANNELS 3  Xrotation Yrotation Zrotation
						JOINT neck_2
						{
							OFFSET	0	86.2	-25.8
							CHANNELS 3  Xrotation Yrotation Zrotation
							JOINT head_ee
							{
								OFFSET	0	179.8	-8.7
								CHANNELS 3  Xrotation Yrotation Zrotation
								End Site
								{
									OFFSET	1	0	0
								}
							}
						}
					}
					JOINT left_clavicle
					{
						OFFSET	-43.2	22.4	-70.8
						CHANNELS 3  Xrotation Yrotation Zrotation
						JOINT left_shoulder
						{
							OFFSET	-93.9	-5.79999	48.7
							CHANNELS 3  Xrotation Yrotation Zrotation
							JOINT left_elbow
							{
								OFFSET	-291.4	-30.8	15.2
								CHANNELS 3  Xrotation Yrotation Zrotation
								JOINT left_lowarm_twist
								{
									OFFSET	-110.7	-3.89999	13.6
									CHANNELS 3  Xrotation Yrotation Zrotation
									JOINT left_hand
									{
										OFFSET	-110.7	-3.89999	13.6
										CHANNELS 3  Xrotation Yrotation Zrotation
										JOINT left_ee
										{
											OFFSET	-80.8	-5.10001	12.1
											CHANNELS 3  Xrotation Yrotation Zrotation
											End Site
											{
												OFFSET	1	0	0
											}
										}
									}
								}
							}
						}
					}
					JOINT right_clavicle
					{
						OFFSET	43.2	22.4	-70.8
						CHANNELS 3  Xrotation Yrotation Zrotation
						JOINT right_shoulder
						{
							OFFSET	93.9	-5.79999	48.7
							CHANNELS 3  Xrotation Yrotation Zrotation
							JOINT right_elbow
							{
								OFFSET	291.4	-30.8	15.2
								CHANNELS 3  Xrotation Yrotation Zrotation
								JOINT right_lowarm_twist
								{
									OFFSET	110.7	-3.89999	13.6
									CHANNELS 3  Xrotation Yrotation Zrotation
									JOINT right_hand
									{
										OFFSET	110.7	-3.89999	13.6
										CHANNELS 3  Xrotation Yrotation Zrotation
										JOINT right_ee
										{
											OFFSET	80.8	-5.10001	12.1
											CHANNELS 3  Xrotation Yrotation Zrotation
											End Site
											{
												OFFSET	1	0	0
											}
										}
									}
								}
							}
						}
					}
				}
			}
		}
	}
	JOINT left_hip
	{
		OFFSET	-82.8	-127.5	0.300001
		CHANNELS 3  Xrotation Yrotation Zrotation
		JOINT left_knee
		{
			OFFSET	-28.2	-396.7	2.2
			CHANNELS 3  Xrotation Yrotation Zrotation
			JOINT left_ankle
			{
				OFFSET	-11.7	-411.3	35.4
				CHANNELS 3  Xrotation Yrotation Zrotation
				JOINT left_toes
				{
					OFFSET	0	-60	-88.6
					CHANNELS 3  Xrotation Yrotation Zrotation
					JOINT left_foot_ee
					{
						OFFSET	-22.5	-16.5	-42.2
						CHANNELS 3  Xrotation Yrotation Zrotation
						End Site
						{
							OFFSET	1	0	0
						}
					}
				}
			}
		}
	}
	JOINT right_hip
	{
		OFFSET	82.8	-127.5	0.300001
		CHANNELS 3  Xrotation Yrotation Zrotation
		JOINT right_knee
		{
			OFFSET	28.2	-396.7	2.2
			CHANNELS 3  Xrotation Yrotation Zrotation
			JOINT right_ankle
			{
				OFFSET	11.7	-411.3	35.4
				CHANNELS 3  Xrotation Yrotation Zrotation
				JOINT right_toes
				{
					OFFSET	0	-60	-88.6
					CHANNELS 3  Xrotation Yrotation Zrotation
					JOINT right_foot_ee
					{
						OFFSET	22.5	-16.5	-42.2
						CHANNELS 3  Xrotation Yrotation Zrotation
						End Site
						{
							OFFSET	1	0	0
						}
					}
				}
			}
		}
	}
}
MOTION
Frames: 10
Frame Time: 0.02
2685.19468931 764.182 -1681.26164736 20.502131098 76.6268011868 -8.04109446664 -5.27373 -0.86405 -4.6419 -5.26193 -0.567256 -4.68733 -5.19173 0.855504 -4.64348 -5.22179 0.112269 -4.72012 -1.3325 5.41031 7.01148 -1.20407 4.09495 8.08594 -0.0 0.0 -0.0 11.1698 13.7247 20.5114 24.7533 -2.35326 82.8458 1.17578 -30.2176 0.317455 48.8317 -0.88645 -5.98847 -3.02725 17.0116 -11.6288 -0.0 0.0 -0.0 8.88605 11.1737 -17.3839 -5.79763 -1.48295 -57.296 1.10058 28.5981 -0.280521 24.434 -0.204599 3.09096 7.34662 -34.5545 -67.3358 0.0 0.0 0.0 16.9815 -11.1968 -9.56189 -54.8042 -1.66581 7.92868 39.2997 15.665 -4.87947 29.8867 -0.0 -0.0 -0.0 0.0 -0.0 21.3933 25.0653 -25.8506 -79.6891 4.65552 -10.2935 4.60777 -28.1048 0.708503 12.3856 -0.0 -0.0 0.0 0.0 0.0 
2682.59764564 767.448 -1686.40053729 14.5243079519 75.2692823605 -2.01458006394 -4.79604 -0.75059 -4.70712 -4.78383 -0.449888 -4.74523 -4.72434 0.947063 -4.67164 -4.75472 0.198256 -4.76234 -2.48552 6.6538 7.70292 -2.32743 5.98145 8.96198 -0.0 0.0 -0.0 10.6181 11.4689 19.8308 28.3667 -3.11923 82.4199 1.14652 -29.5936 0.302865 48.5382 -0.866162 -5.95684 -2.73033 17.1946 -9.68467 -0.0 0.0 -0.0 8.64036 12.0253 -16.8238 -6.2428 -3.47851 -58.9654 0.97667 25.8178 -0.223852 23.0695 -0.2281 2.91824 7.476 -35.0977 -69.4161 0.0 0.0 0.0 17.0926 -10.1561 -9.93001 -52.5209 -1.44873 7.65181 39.3828 17.1994 -4.91328 30.6384 -0.0 -0.0 -0.0 0.0 -0.0 24.7292 24.9741 -25.0661 -77.6733 4.37789 -10.1523 9.20034 -29.2894 1.40781 13.8444 -0.0 -0.0 0.0 0.0 0.0 
2673.15954726 776.366 -1681.58397562 13.4307449352 75.4242679661 -1.11619968856 -4.72882 -0.681854 -4.71458 -4.71653 -0.380818 -4.74831 -4.66326 1.0093 -4.6556 -4.6934 0.262241 -4.75631 -2.73105 6.25806 8.63476 -2.5346 4.56923 9.88031 -0.0 0.0 -0.0 10.5653 10.8655 19.8116 29.7258 -4.11081 82.4772 1.21341 -31.0083 0.336613 47.8087 -0.816442 -5.87779 -2.38114 17.3441 -7.45573 -0.0 0.0 -0.0 8.78996 12.1374 -17.1445 -7.15198 -4.58669 -58.3386 0.877905 23.5034 -0.182635 23.3036 -0.224361 2.94792 7.49304 -35.1938 -69.691 0.0 0.0 0.0 16.2297 -10.1189 -9.50375 -50.7915 -1.2918 7.43655 36.5585 17.8924 -4.65691 29.6998 -0.0 -0.0 -0.0 0.0 -0.0 27.1991 26.3704 -24.5768 -73.5592 3.82753 -9.83456 10.4963 -28.2323 1.58863 12.7503 -0.0 -0.0 0.0 0.0 0.0 
2661.42292843 789.353 -1664.96485348 13.7719173229 78.4149607288 -1.84314987699 -4.72156 -0.62246 -4.61638 -4.70977 -0.327771 -4.64654 -4.66263 1.03065 -4.54286 -4.69129 0.301067 -4.64834 -2.78167 7.47873 8.68451 -2.58066 6.75837 10.0971 -0.0 0.0 -0.0 10.4542 9.79655 19.7355 30.7705 -6.82369 82.2508 1.33988 -33.5721 0.404195 46.9888 -0.76177 -5.7882 -1.48862 17.5646 -1.9084 -0.0 0.0 -0.0 8.95866 11.8096 -17.5221 -8.44757 -6.22008 -58.7128 0.722745 19.6987 -0.125483 23.3404 -0.223762 2.95258 7.4769 -34.891 -69.5856 0.0 0.0 0.0 13.2518 -6.43438 -10.6307 -42.9328 -0.663817 6.4039 35.1864 14.5708 -4.47139 29.3943 -0.0 -0.0 -0.0 0.0 -0.0 28.7618 22.8114 -21.5773 -70.556 3.44092 -9.57819 12.8147 -24.1103 1.87951 13.4015 -0.0 -0.0 0.0 0.0 0.0 
2622.35371637 801.232 -1629.88479919 34.677015819 82.7995935565 -22.8991673863 -4.99168 -0.650586 -4.40763 -4.98095 -0.369082 -4.44001 -4.93257 0.951597 -4.35268 -4.95891 0.252943 -4.44812 -4.06145 8.41759 8.42074 -3.86825 8.94319 9.97893 -0.0 0.0 -0.0 10.111 7.03708 19.3733 33.4465 -14.4434 81.5511 1.8737 -42.8624 0.735526 46.1116 -0.704712 -5.69151 0.0386351 19.3902 8.07422 -0.0 0.0 -0.0 8.86632 11.2675 -17.3384 -10.9022 -7.92035 -59.79 0.36489 10.2461 -0.0327137 22.5887 -0.235399 2.85727 7.41845 -34.27 -68.8474 0.0 0.0 0.0 5.28495 0.182897 -11.6787 -31.795 -0.028864 4.81725 34.2147 10.7794 -4.33871 29.4124 -0.0 -0.0 -0.0 0.0 -0.0 34.3209 11.5991 -19.7466 -63.3248 2.5695 -8.88124 16.4065 -15.1547 2.29651 14.7436 -0.0 -0.0 0.0 0.0 0.0 
2622.78630443 801.232 -1624.20711259 37.5072159048 83.2738477257 -25.7503649416 -4.99168 -0.650586 -4.40763 -4.98095 -0.369082 -4.44001 -4.93257 0.951597 -4.35268 -4.95891 0.252943 -4.44812 -4.06145 8.41759 8.42074 -3.86825 8.94319 9.97893 -0.0 0.0 -0.0 10.111 7.03708 19.3733 33.4465 -14.4434 81.5511 1.8737 -42.8624 0.735526 46.1116 -0.704712 -5.69151 0.0386351 19.3902 8.07422 -0.0 0.0 -0.0 8.86632 11.2675 -17.3384 -10.9022 -7.92035 -59.79 0.36489 10.2461 -0.0327137 22.5887 -0.235399 2.85727 7.41845 -34.27 -68.8474 0.0 0.0 0.0 5.28495 0.182897 -11.6787 -31.795 -0.028864 4.81725 34.2147 10.7794 -4.33871 29.4124 -0.0 -0.0 -0.0 0.0 -0.0 34.3209 11.5991 -19.7466 -63.3248 2.5695 -8.88124 16.4065 -15.1547 2.29651 14.7436 -0.0 -0.0 0.0 0.0 0.0 
2609.74291536 799.611 -1607.27731257 48.8572466309 83.3833030377 -36.7492166015 -5.10545 -0.578651 -4.35777 -5.09494 -0.300455 -4.38568 -5.05265 1.01035 -4.27848 -5.07804 0.322651 -4.38411 -4.2212 7.84116 7.86751 -4.05309 8.34452 9.32711 -0.0 0.0 -0.0 10.1265 6.89089 19.4172 34.1038 -17.3192 81.1543 2.07015 -45.7156 0.87275 45.612 -0.672877 -5.63605 0.340304 18.9235 9.73094 -0.0 0.0 -0.0 8.57197 10.1739 -16.7337 -10.6766 -8.12435 -60.4095 0.349218 9.81479 -0.029984 21.6973 -0.247578 2.74405 7.4265 -34.8913 -68.5909 0.0 0.0 0.0 2.42689 1.54661 -12.0751 -29.3409 0.0687464 4.4533 37.3639 12.3393 -4.65713 29.3982 -0.0 -0.0 -0.0 0.0 -0.0 35.2005 9.50658 -18.596 -58.1166 2.00008 -8.31468 14.4002 -11.4746 2.01842 12.1848 -0.0 -0.0 0.0 0.0 0.0 
2585.70702364 800.362 -1589.45997753 66.4433876094 83.9486019741 -54.7280329093 -5.30645 -0.627564 -4.31456 -5.29617 -0.352011 -4.34567 -5.24974 0.963758 -4.25223 -5.27486 0.28077 -4.35085 -4.61412 8.43051 8.43296 -4.4218 9.07271 10.0097 -0.0 0.0 -0.0 10.3616 6.5137 19.9117 35.7644 -22.133 79.8526 2.49925 -51.0634 1.19393 44.8887 -0.627655 -5.55528 0.617385 19.6985 11.6989 -0.0 0.0 -0.0 8.53408 8.7021 -16.6865 -10.9134 -8.15583 -60.783 0.274601 7.74653 -0.0185918 20.4135 -0.262018 2.58072 7.26868 -34.4879 -66.0404 0.0 0.0 0.0 0.702926 3.37654 -12.8372 -27.5369 0.130501 4.18333 40.014 11.3863 -4.88946 29.105 -0.0 -0.0 -0.0 0.0 -0.0 37.8859 6.99828 -15.6802 -51.1934 1.32768 -7.48699 15.3951 -3.85053 2.14868 9.802 -0.0 -0.0 0.0 0.0 0.0 
2586.1331016 800.362 -1586.36508334 69.0879997739 84.0621471124 -57.3871796214 -5.30645 -0.627564 -4.31456 -5.29617 -0.352011 -4.34567 -5.24974 0.963758 -4.25223 -5.27486 0.28077 -4.35085 -4.61412 8.43051 8.43296 -4.4218 9.07271 10.0097 -0.0 0.0 -0.0 10.3616 6.5137 19.9117 35.7644 -22.133 79.8526 2.49925 -51.0634 1.19393 44.8887 -0.627655 -5.55528 0.617385 19.6985 11.6989 -0.0 0.0 -0.0 8.53408 8.7021 -16.6865 -10.9134 -8.15583 -60.783 0.274601 7.74653 -0.0185918 20.4135 -0.262018 2.58072 7.26868 -34.4879 -66.0404 0.0 0.0 0.0 0.702926 3.37654 -12.8372 -27.5369 0.130501 4.18333 40.014 11.3863 -4.88946 29.105 -0.0 -0.0 -0.0 0.0 -0.0 37.8859 6.99828 -15.6802 -51.1934 1.32768 -7.48699 15.3951 -3.85053 2.14868 9.802 -0.0 -0.0 0.0 0.0 0.0 
2574.14151358 796.472 -1578.10965322 76.0758286547 84.5054272559 -64.6484136966 -5.21409 -0.770528 -4.29528 -5.20397 -0.495911 -4.3355 -5.14637 0.815264 -4.28703 -5.17199 0.128649 -4.36183 -4.62329 8.51184 9.27594 -4.39298 8.57864 10.8821 -0.0 0.0 -0.0 10.4427 6.52368 20.0696 36.5453 -23.6348 79.6501 2.7912 -54.1142 1.4259 43.8545 -0.564782 -5.43884 0.698745 19.6812 12.1901 -0.0 0.0 -0.0 8.46904 8.06961 -16.5595 -11.0173 -8.43986 -60.9102 0.323052 9.09217 -0.0256863 20.3214 -0.262914 2.56898 7.18618 -34.337 -64.8005 0.0 0.0 0.0 -0.485306 4.55251 -12.884 -26.7675 0.154242 4.06765 39.8545 10.8421 -4.87043 29.3691 -0.0 -0.0 -0.0 0.0 -0.0 38.9416 6.15903 -14.7818 -48.2902 1.07654 -7.11719 13.142 -0.400457 1.86175 9.45039 -0.0 -0.0 0.0 0.0 0.0 
